# xmcd
#
# Track frame offsets: 
#        183
#        16443
#        39440
#        55655
#        72658
#        83313
#        103078
#        125255
#        141418
#        153233
#        166505
#        181460
#        208790
#        224213
#        234570
#        252533
#
# Disc length: 3588 seconds
#
# Revision: 2
# Processed by: cddbd v1.5.1PL0 Copyright (c) Steve Scherf et al.
# Submitted via: ExactAudioCopy v0.95a3
#
DISCID=e30e0210
DTITLE=Western Union - Western Union-Live
DYEAR=1983
DGENRE=Country
TTITLE0=Mountain Music
TTITLE1=Good Hearted Woman
TTITLE2=Some Broken Hearts Never Mend
TTITLE3=Whispering Pines
TTITLE4=Truck Drivin' Man
TTITLE5=Steel Guitar Rag
TTITLE6=Wabash Cannonball
TTITLE7=South Gonna Do It
TTITLE8=Six Days On The Road
TTITLE9=East Bound And Down
TTITLE10=Raz Ma Taz Polka
TTITLE11=Country Roads
TTITLE12=Green Green Gras Of Home
TTITLE13=King Of The Road
TTITLE14=I Can't Stop Loving You
TTITLE15=Detroit City
EXTD=
EXTT0=
EXTT1=
EXTT2=
EXTT3=
EXTT4=
EXTT5=
EXTT6=
EXTT7=
EXTT8=
EXTT9=
EXTT10=
EXTT11=
EXTT12=
EXTT13=
EXTT14=
EXTT15=
PLAYORDER=
